<svg width="28" height="24" viewBox="0 0 28 24" fill="none" xmlns="http://www.w3.org/2000/svg">
<path d="M18.6809 0L23.1704 7.49143H27.9549V10.1852H26.3237L25.2657 22.4191C25.2366 22.7556 25.0773 23.0694 24.8195 23.2981C24.5616 23.5269 24.224 23.654 23.8735 23.6542H4.08142C3.73069 23.6543 3.39271 23.5274 3.13457 23.2986C2.87642 23.0698 2.71698 22.7559 2.68787 22.4191L1.62977 10.1852H0V7.49143H4.78309L9.27265 0L11.6935 1.34689L8.01188 7.49143H19.9416L16.2614 1.34689L18.6823 0H18.6809ZM23.5171 10.1852H4.43645L5.36874 20.9604H22.5876L23.5199 10.1852H23.5171ZM15.3752 12.879V18.2666H12.5797V12.879H15.3752ZM9.78422 12.879V18.2666H6.98873V12.879H9.78422ZM20.9662 12.879V18.2666H18.1707V12.879H20.9662Z" fill="white"/>
</svg>
